<?xml version="1.0" encoding="utf-8"?>
<!-- Generator: Adobe Illustrator 16.0.0, SVG Export Plug-In . SVG Version: 6.00 Build 0)  -->
<!DOCTYPE svg PUBLIC "-//W3C//DTD SVG 1.1//EN" "http://www.w3.org/Graphics/SVG/1.1/DTD/svg11.dtd">
<svg version="1.1" id="Layer_1" xmlns="http://www.w3.org/2000/svg" xmlns:xlink="http://www.w3.org/1999/xlink" x="0px" y="0px"
	 width="16px" height="16px" viewBox="0 0 16 16" enable-background="new 0 0 16 16" xml:space="preserve">
<path fill-rule="evenodd" clip-rule="evenodd" fill="#111111" d="M0,6.26c0,3.46,2.8,6.26,6.26,6.26c1.19,0,2.31-0.33,3.26-0.91
	L13.91,16L16,13.91l-4.39-4.39c0.58-0.95,0.91-2.07,0.91-3.26C12.52,2.8,9.72,0,6.26,0C2.8,0,0,2.8,0,6.26z M2.78,6.26
	c0-1.92,1.56-3.48,3.48-3.48c1.92,0,3.48,1.56,3.48,3.48c0,1.92-1.56,3.48-3.48,3.48C4.34,9.74,2.78,8.18,2.78,6.26z"/>
</svg>
