<?xml version="1.0" encoding="utf-8"?>
<!-- Generator: Adobe Illustrator 16.0.0, SVG Export Plug-In . SVG Version: 6.00 Build 0)  -->
<!DOCTYPE svg PUBLIC "-//W3C//DTD SVG 1.1//EN" "http://www.w3.org/Graphics/SVG/1.1/DTD/svg11.dtd">
<svg version="1.1" id="Layer_x5F_1_x5F_1" xmlns="http://www.w3.org/2000/svg" xmlns:xlink="http://www.w3.org/1999/xlink" x="0px"
	 y="0px" width="760.88px" height="104.35px" viewBox="0 0 760.88 104.35" enable-background="new 0 0 760.88 104.35"
	 xml:space="preserve">
<path fill-rule="evenodd" clip-rule="evenodd" fill="#57585A" d="M239.28,102.9l9.57-22.47h40.72l9.57,22.47h20.43L276.09,1.45
	h-13.77L218.85,102.9H239.28z M269.14,33.04l12.89,30h-25.79L269.14,33.04z M357.83,57.97l36.09,44.93h24.2l-37.97-46.53
	c4.06-1.3,7.39-3.33,10.14-5.94c5.51-5.22,8.99-12.61,8.99-20.72c0-8.12-3.48-15.51-8.99-20.73c-5.07-4.64-11.73-7.53-22.17-7.53
	h-36.96V102.9h19.57V57.97H357.83z M350.73,40.58V18.84h16.23c5.65,0,8.12,1.3,9.86,3.19c1.74,1.88,2.9,4.78,2.9,7.82
	c0,2.9-1.16,5.8-2.9,7.68c-1.74,1.89-4.21,3.05-9.86,3.05H350.73z M413.05,1.45v17.39h26.81v84.06h19.57V18.84h26.81V1.45H413.05z
	 M501.46,102.9h19.56V1.45h-19.56V102.9z M534.07,89.13c10.43,9.56,23.04,15.22,36.66,15.22c18.26,0,34.35-12.47,34.35-30.44
	c0-34.2-46.81-29.13-46.81-45.51c0-7.82,8.26-11.01,15.65-11.01c6.67,0,13.48,2.9,17.54,6.66L601.6,9.56
	C592.04,2.46,582.47,0,572.18,0c-16.81,0-33.48,10.43-33.48,28.55c0,11.45,6.38,18.4,14.35,23.04c13.63,7.97,32.47,9.57,32.47,22.61
	c0,7.39-6.09,12.75-14.79,12.75c-9.27,0-18.11-4.78-23.91-11.16L534.07,89.13z M610.15,1.45v17.39h26.81v84.06h19.57V18.84h26.81
	V1.45H610.15z M689.86,89.13c10.44,9.56,23.05,15.22,36.67,15.22c18.26,0,34.35-12.47,34.35-30.44c0-34.2-46.81-29.13-46.81-45.51
	c0-7.82,8.26-11.01,15.65-11.01c6.66,0,13.48,2.9,17.54,6.66L757.4,9.56C747.84,2.46,738.27,0,727.98,0
	c-16.81,0-33.48,10.43-33.48,28.55c0,11.45,6.38,18.4,14.35,23.04c13.62,7.97,32.46,9.57,32.46,22.61c0,7.39-6.08,12.75-14.78,12.75
	c-9.28,0-18.12-4.78-23.91-11.16L689.86,89.13z M94.93,1.45l0.03,0.03h6.5l-0.01-0.03H94.93z M81.16,1.45v0.03h6.5l0.03-0.03H81.16z
	 M101.61,1.48h-0.15h-6.5h-7.3h-6.5h-0.55v11.59l-29.88,49.1L13.77,1.45H0V102.9h19.57V46.37l24.35,39.86h13.62l23.07-37.77v54.02
	h0.55v0.42h0.73v-0.42h18.83l0.01,0.42h0.72l0.01-0.42h0.15V37.84l55.64,65.06h13.77V1.45h-19.57v66.08L101.61,9.25V1.48z"/>
</svg>
