<?xml version="1.0" encoding="utf-8"?>
<!-- Generator: Adobe Illustrator 16.0.0, SVG Export Plug-In . SVG Version: 6.00 Build 0)  -->
<!DOCTYPE svg PUBLIC "-//W3C//DTD SVG 1.1//EN" "http://www.w3.org/Graphics/SVG/1.1/DTD/svg11.dtd">
<svg version="1.1" id="Layer_1" xmlns="http://www.w3.org/2000/svg" xmlns:xlink="http://www.w3.org/1999/xlink" x="0px" y="0px"
	 width="21.061px" height="21.09px" viewBox="0 0 21.061 21.09" enable-background="new 0 0 21.061 21.09" xml:space="preserve">
<path fill="#111111" stroke="#111111" stroke-miterlimit="10" d="M10.53,21.09c-1.46,0-2.829-0.273-4.109-0.824
	s-2.396-1.301-3.345-2.25c-0.95-0.949-1.7-2.064-2.25-3.346C0.274,13.391,0,12.021,0,10.56C0,9.1,0.274,7.73,0.825,6.45
	c0.55-1.279,1.3-2.4,2.25-3.36C4.024,2.13,5.14,1.375,6.42,0.825C7.7,0.275,9.07,0,10.53,0c1.461,0,2.83,0.275,4.11,0.825
	c1.28,0.55,2.396,1.305,3.345,2.265c0.95,0.96,1.7,2.081,2.25,3.36c0.552,1.28,0.826,2.65,0.826,4.11
	c0,1.459-0.274,2.831-0.826,4.11c-0.55,1.28-1.3,2.396-2.25,3.346c-0.948,0.949-2.063,1.699-3.345,2.25
	C13.359,20.814,11.99,21.09,10.53,21.09z M7.8,10.92h1.56v4.739h1.95V10.92h1.95V8.97h-1.95V7.98c0-0.16,0.04-0.3,0.12-0.42
	S11.6,7.38,11.7,7.38h1.561V5.46H11.7c-0.641,0-1.189,0.25-1.649,0.75s-0.69,1.1-0.69,1.8v0.96H7.8V10.92z"/>
</svg>
