<?xml version="1.0" encoding="utf-8"?>
<!-- Generator: Adobe Illustrator 16.0.0, SVG Export Plug-In . SVG Version: 6.00 Build 0)  -->
<!DOCTYPE svg PUBLIC "-//W3C//DTD SVG 1.1//EN" "http://www.w3.org/Graphics/SVG/1.1/DTD/svg11.dtd">
<svg version="1.1" id="Layer_1" xmlns="http://www.w3.org/2000/svg" xmlns:xlink="http://www.w3.org/1999/xlink" x="0px" y="0px"
	 width="21.061px" height="21.029px" viewBox="0 0 21.061 21.029" enable-background="new 0 0 21.061 21.029" xml:space="preserve">
<g>
	<path fill="#111111" d="M10.545,0c1.458,0,2.826,0.274,4.104,0.823c1.277,0.55,2.393,1.299,3.34,2.248
		c0.948,0.949,1.696,2.062,2.247,3.34c0.55,1.279,0.824,2.646,0.824,4.104s-0.274,2.824-0.824,4.104
		c-0.551,1.277-1.299,2.392-2.247,3.34c-0.947,0.948-2.062,1.697-3.34,2.246c-1.277,0.55-2.646,0.824-4.104,0.824
		s-2.827-0.274-4.104-0.824c-1.278-0.549-2.396-1.298-3.355-2.246c-0.958-0.948-1.712-2.062-2.261-3.34
		C0.274,13.34,0,11.973,0,10.515S0.274,7.689,0.824,6.41c0.548-1.277,1.303-2.392,2.261-3.34c0.959-0.948,2.077-1.698,3.355-2.248
		C7.719,0.274,9.087,0,10.545,0z M16.236,7.489c-0.198,0.079-0.398,0.145-0.598,0.194c-0.201,0.05-0.41,0.095-0.629,0.135
		c0.219-0.139,0.408-0.311,0.568-0.51c0.159-0.199,0.289-0.419,0.389-0.658c-0.219,0.1-0.444,0.199-0.674,0.299
		s-0.476,0.17-0.734,0.209C14.38,6.939,14.16,6.77,13.9,6.65c-0.26-0.121-0.549-0.181-0.869-0.181c-0.579,0-1.077,0.21-1.497,0.63
		c-0.421,0.42-0.63,0.929-0.63,1.528c0,0.119,0.021,0.279,0.061,0.479c-0.898-0.041-1.723-0.26-2.472-0.66
		C7.744,8.049,7.101,7.519,6.561,6.86c-0.179,0.339-0.27,0.698-0.27,1.077c0,0.8,0.31,1.389,0.929,1.768
		c-0.359,0-0.679-0.079-0.959-0.239v0.029c0,0.52,0.16,0.974,0.48,1.363c0.318,0.39,0.718,0.635,1.197,0.734
		c-0.081,0.021-0.165,0.033-0.254,0.043c-0.09,0.013-0.194,0.018-0.313,0.018c-0.081,0-0.2-0.021-0.36-0.061
		c0.12,0.42,0.36,0.769,0.719,1.049c0.359,0.278,0.779,0.429,1.258,0.447c-0.759,0.601-1.638,0.9-2.637,0.9h-0.51
		C6.3,14.288,6.81,14.522,7.37,14.692c0.558,0.17,1.138,0.255,1.736,0.255c0.979,0,1.848-0.185,2.606-0.555
		c0.76-0.37,1.394-0.845,1.902-1.424c0.51-0.578,0.895-1.229,1.153-1.945c0.259-0.719,0.391-1.438,0.391-2.158V8.594
		c0.22-0.159,0.419-0.334,0.599-0.523C15.938,7.883,16.096,7.689,16.236,7.489z"/>
</g>
</svg>
