<?xml version="1.0" encoding="utf-8"?>
<!-- Generator: Adobe Illustrator 17.1.0, SVG Export Plug-In . SVG Version: 6.00 Build 0)  -->
<!DOCTYPE svg PUBLIC "-//W3C//DTD SVG 1.1//EN" "http://www.w3.org/Graphics/SVG/1.1/DTD/svg11.dtd">
<svg version="1.1" id="Layer_1" xmlns="http://www.w3.org/2000/svg" xmlns:xlink="http://www.w3.org/1999/xlink" x="0px" y="0px"
	 viewBox="0 0 80 50" enable-background="new 0 0 80 50" xml:space="preserve">
<g>
	<path fill="#FF0000" d="M22.6,36.6c-1.9,0-3.4,1.5-3.4,3.4c0,1.9,1.5,3.4,3.4,3.4s3.4-1.5,3.4-3.4C26.1,38.1,24.5,36.6,22.6,36.6z
		 M22.6,41.2c-0.7,0-1.2-0.5-1.2-1.2c0-0.7,0.5-1.2,1.2-1.2c0.7,0,1.2,0.5,1.2,1.2C23.8,40.7,23.3,41.2,22.6,41.2z"/>
	<path fill="#FF0000" d="M57.4,36.6c-1.9,0-3.4,1.5-3.4,3.4c0,1.9,1.5,3.4,3.4,3.4c1.9,0,3.4-1.5,3.4-3.4
		C60.8,38.1,59.3,36.6,57.4,36.6z M57.4,41.2c-0.7,0-1.2-0.5-1.2-1.2c0-0.7,0.5-1.2,1.2-1.2c0.7,0,1.2,0.5,1.2,1.2
		C58.6,40.7,58,41.2,57.4,41.2z"/>
	<path fill="#FF0000" d="M39.9,6.6c-1.9,0-3.4,1.5-3.4,3.4c0,1.9,1.5,3.4,3.4,3.4c1.9,0,3.4-1.5,3.4-3.4C43.4,8.1,41.8,6.6,39.9,6.6
		z M39.9,11.2c-0.7,0-1.2-0.5-1.2-1.2c0-0.7,0.5-1.2,1.2-1.2c0.7,0,1.2,0.5,1.2,1.2C41.1,10.7,40.6,11.2,39.9,11.2z"/>
</g>
</svg>
