<?xml version="1.0" encoding="utf-8"?>
<!-- Generator: Adobe Illustrator 17.1.0, SVG Export Plug-In . SVG Version: 6.00 Build 0)  -->
<!DOCTYPE svg PUBLIC "-//W3C//DTD SVG 1.1//EN" "http://www.w3.org/Graphics/SVG/1.1/DTD/svg11.dtd">
<svg version="1.1" id="Layer_1" xmlns="http://www.w3.org/2000/svg" xmlns:xlink="http://www.w3.org/1999/xlink" x="0px" y="0px"
	 viewBox="0 0 80 50" enable-background="new 0 0 80 50" xml:space="preserve">
<path fill="#962683" d="M8.8,41.4l2.1,3.4l10.5-6.5l-2.1-3.4L8.8,41.4z M65.1,13.4l6.1-3.8l-2.1-3.4l-10.4,6.6l2.1,3.4l-6.1,3.8
	l2.1,3.4l-6.1,3.8l2.1,3.4L49,32.8l-2.7,0.1L46,25.7l-4,0.2l0.6,12.3l4-0.2l0,0.9l-3.9,2.5l2.1,3.4l2-1.3l0.1,1.7l4-0.2l-0.2-3.9
	l4.6-2.9l-2.1-3.4l-2.2,1.4l8.3-5.2l-2.1-3.4l-1.2,0.8l7.3-4.6l-2.1-3.4L59,21.9l8.2-5.1L65.1,13.4z M37.8,18.9l-0.3-7.2l-3.9,0.2
	l3.8-2.4l-2.1-3.4l-1.9,1.2l-0.1-2.6l-4,0.2l0.2,4.9l-4.7,2.9l2.1,3.4l-6.1,3.8l2.1,3.4l-6.1,3.8l2.1,3.4l-6.1,3.8l2.1,3.4l10.5-6.6
	l-2.1-3.4l-2.3,1.4l8.4-5.3l-2.1-3.4L24.9,22l7.8-4.9l1,0l0.3,7.2l4-0.2l-0.2-4.6l0.5,11.8l4-0.2l-0.6-12.3L37.8,18.9z M29.6,14.4
	l-0.7,0.5L29.6,14.4L29.6,14.4z"/>
</svg>
