<?xml version="1.0" encoding="utf-8"?>
<!-- Generator: Adobe Illustrator 17.1.0, SVG Export Plug-In . SVG Version: 6.00 Build 0)  -->
<!DOCTYPE svg PUBLIC "-//W3C//DTD SVG 1.1//EN" "http://www.w3.org/Graphics/SVG/1.1/DTD/svg11.dtd">
<svg version="1.1" id="Layer_1" xmlns="http://www.w3.org/2000/svg" xmlns:xlink="http://www.w3.org/1999/xlink" x="0px" y="0px"
	 viewBox="0 0 80 50" enable-background="new 0 0 80 50" xml:space="preserve">
<g>
	<path fill="none" stroke="#009245" stroke-width="4" d="M15.6,41.7c2.3,1.3,5.3,0.6,6.6-1.7c1.3-2.3,0.6-5.3-1.7-6.6"/>
	<path fill="none" stroke="#009245" stroke-width="4" d="M25.4,25c-2.3-1.3-5.3-0.6-6.6,1.7c-1.3,2.3-0.6,5.3,1.7,6.6"/>
	<path fill="none" stroke="#009245" stroke-width="4" d="M25.4,25c2.3,1.3,5.3,0.6,6.6-1.7s0.6-5.3-1.7-6.6"/>
	<path fill="none" stroke="#009245" stroke-width="4" d="M35.1,8.3c-2.3-1.3-5.3-0.6-6.6,1.7c-1.3,2.3-0.6,5.3,1.7,6.6"/>
	<path fill="none" stroke="#009245" stroke-width="4" d="M44.9,41.7c2.3,1.3,5.3,0.6,6.6-1.7c1.3-2.3,0.6-5.3-1.7-6.6"/>
	<path fill="none" stroke="#009245" stroke-width="4" d="M54.6,25c-2.3-1.3-5.3-0.6-6.6,1.7s-0.6,5.3,1.7,6.6"/>
	<path fill="none" stroke="#009245" stroke-width="4" d="M54.6,25c2.3,1.3,5.3,0.6,6.6-1.7c1.3-2.3,0.6-5.3-1.7-6.6"/>
	<path fill="none" stroke="#009245" stroke-width="4" d="M64.4,8.3c-2.3-1.3-5.3-0.6-6.6,1.7c-1.3,2.3-0.6,5.3,1.7,6.6"/>
	<path fill="none" stroke="#009245" stroke-width="4" d="M49.8,41.7c-2.3,1.3-5.3,0.6-6.6-1.7c-1.3-2.3-0.6-5.3,1.7-6.6"/>
	<path fill="none" stroke="#009245" stroke-width="4" d="M40,25c2.3-1.3,5.3-0.6,6.6,1.7c1.3,2.3,0.6,5.3-1.7,6.6"/>
	<path fill="none" stroke="#009245" stroke-width="4" d="M40,25c-2.3,1.3-5.3,0.6-6.6-1.7s-0.6-5.3,1.7-6.6"/>
	<path fill="none" stroke="#009245" stroke-width="4" d="M30.2,8.3c2.3-1.3,5.3-0.6,6.6,1.7c1.3,2.3,0.6,5.3-1.7,6.6"/>
	<path fill="none" stroke="#009245" stroke-width="4" d="M59.5,8.3"/>
</g>
</svg>
