<?xml version="1.0" encoding="utf-8"?>
<!-- Generator: Adobe Illustrator 17.1.0, SVG Export Plug-In . SVG Version: 6.00 Build 0)  -->
<!DOCTYPE svg PUBLIC "-//W3C//DTD SVG 1.1//EN" "http://www.w3.org/Graphics/SVG/1.1/DTD/svg11.dtd">
<svg version="1.1" id="Layer_1" xmlns="http://www.w3.org/2000/svg" xmlns:xlink="http://www.w3.org/1999/xlink" x="0px" y="0px"
	 viewBox="0 0 80 50" enable-background="new 0 0 80 50" xml:space="preserve">
<path fill="#962683" d="M19,41.4l2.1,3.4l10.5-6.5l-2.1-3.4L19,41.4z M60.5,32.7l-4,0.2l-0.3-7.2l-4,0.2l0.6,12.3l4-0.2l0.3,7.2
	l4-0.2L60.5,32.7z M47.9,18.9l-0.3-7.2l-3.9,0.2l3.8-2.4l-2.1-3.4l-1.9,1.2l-0.1-2.6l-4,0.2l0.2,4.9l-4.7,2.9l2.1,3.4l-6.1,3.8
	l2.1,3.4l-6.1,3.8l2.1,3.4L23,34.3l2.1,3.4l10.5-6.6l-2.1-3.4l-1.8,1.1l7.9-4.9l-2.1-3.4l-1.6,1l7.1-4.4l1,0l0.3,7.2l4-0.2l0.3,7.2
	l4-0.2l-0.6-12.3L47.9,18.9z"/>
</svg>
