<?xml version="1.0" encoding="utf-8"?>
<!-- Generator: Adobe Illustrator 17.1.0, SVG Export Plug-In . SVG Version: 6.00 Build 0)  -->
<!DOCTYPE svg PUBLIC "-//W3C//DTD SVG 1.1//EN" "http://www.w3.org/Graphics/SVG/1.1/DTD/svg11.dtd">
<svg version="1.1" id="Layer_1" xmlns="http://www.w3.org/2000/svg" xmlns:xlink="http://www.w3.org/1999/xlink" x="0px" y="0px"
	 viewBox="0 0 80 50" enable-background="new 0 0 80 50" xml:space="preserve">
<path fill="#FD6467" d="M67.5,4.8c-3-1.7-6.9-0.5-8.5,2.5c-1.9,3.5,0.7,7.2-2.3,10.5c-2.3,2.6-5.9,2.1-6.5,6.4c-0.5,3.2,1,6-1.9,8.7
	c-4.3-3.9,0.6-10.9-5.7-13.6c-3-1.2-5.1-3.7-4.5-7.3c0.7-2.7-0.4-5.7-2.9-7.1c-2.3-1.3-5.2-1.1-7.2,0.6c-2.8,2.3-1.8,4.9-1.9,7.9
	c-0.2,4-2.8,4.6-5.5,6.3c-5.2,3.3-0.3,10.2-5.2,13.5c-2.6,1.7-5.2,1.9-5.8,5.6c-0.5,3.1,1.5,6.1,4.5,7c2.8,0.8,5.8-0.5,7.2-3
	c1.9-3.4-0.8-6.7,2-10c2.2-2.5,5.6-2.3,6.7-6c1-3.4-1.1-6.6,2.1-9.3c3.8,3.2,0.4,8,3.3,11.6c1.3,1.6,3.1,1.8,4.7,3
	c2.2,1.7,2.7,4,2.2,6.6c-1,4.9,4,8.7,8.4,7.1c1.7-0.6,3.1-2,3.7-3.8c0.8-2.4-0.7-4.5,0.2-6.8c1.8-4.5,7.9-4.2,8.2-9.6
	c0.1-2.3-0.7-4.1,0.5-6.3c1.2-2.2,3.3-2.4,5.1-3.8C71.8,12.6,71.4,7,67.5,4.8"/>
</svg>
