<?xml version="1.0" encoding="utf-8"?>
<!-- Generator: Adobe Illustrator 17.1.0, SVG Export Plug-In . SVG Version: 6.00 Build 0)  -->
<!DOCTYPE svg PUBLIC "-//W3C//DTD SVG 1.1//EN" "http://www.w3.org/Graphics/SVG/1.1/DTD/svg11.dtd">
<svg version="1.1" id="Layer_1" xmlns="http://www.w3.org/2000/svg" xmlns:xlink="http://www.w3.org/1999/xlink" x="0px" y="0px"
	 viewBox="0 0 80 50" enable-background="new 0 0 80 50" xml:space="preserve">
<g>
	<path fill="#FF0000" d="M5.2,36.6c-1.9,0-3.4,1.5-3.4,3.4c0,1.9,1.5,3.4,3.4,3.4s3.4-1.5,3.4-3.4C8.6,38.1,7.1,36.6,5.2,36.6z
		 M5.2,41.2C4.5,41.2,4,40.7,4,40c0-0.7,0.5-1.2,1.2-1.2c0.7,0,1.2,0.5,1.2,1.2C6.4,40.7,5.8,41.2,5.2,41.2z"/>
	<path fill="#FF0000" d="M39.9,36.6c-1.9,0-3.4,1.5-3.4,3.4c0,1.9,1.5,3.4,3.4,3.4c1.9,0,3.4-1.5,3.4-3.4
		C43.4,38.1,41.8,36.6,39.9,36.6z M39.9,41.2c-0.7,0-1.2-0.5-1.2-1.2c0-0.7,0.5-1.2,1.2-1.2c0.7,0,1.2,0.5,1.2,1.2
		C41.1,40.7,40.6,41.2,39.9,41.2z"/>
	<path fill="#FF0000" d="M74.8,36.6c-1.9,0-3.4,1.5-3.4,3.4c0,1.9,1.5,3.4,3.4,3.4c1.9,0,3.4-1.5,3.4-3.4
		C78.3,38.1,76.7,36.6,74.8,36.6z M74.8,41.2c-0.7,0-1.2-0.5-1.2-1.2c0-0.7,0.5-1.2,1.2-1.2c0.7,0,1.2,0.5,1.2,1.2
		C76,40.7,75.5,41.2,74.8,41.2z"/>
	<path fill="#FF0000" d="M22.5,6.6C20.6,6.6,19,8.1,19,10c0,1.9,1.5,3.4,3.4,3.4s3.4-1.5,3.4-3.4C25.9,8.1,24.4,6.6,22.5,6.6z
		 M22.5,11.2c-0.7,0-1.2-0.5-1.2-1.2c0-0.7,0.5-1.2,1.2-1.2c0.7,0,1.2,0.5,1.2,1.2C23.7,10.7,23.1,11.2,22.5,11.2z"/>
	<path fill="#FF0000" d="M57.2,6.6c-1.9,0-3.4,1.5-3.4,3.4c0,1.9,1.5,3.4,3.4,3.4c1.9,0,3.4-1.5,3.4-3.4C60.7,8.1,59.1,6.6,57.2,6.6
		z M57.2,11.2c-0.7,0-1.2-0.5-1.2-1.2c0-0.7,0.5-1.2,1.2-1.2c0.7,0,1.2,0.5,1.2,1.2C58.4,10.7,57.9,11.2,57.2,11.2z"/>
</g>
</svg>
