<?xml version="1.0" encoding="utf-8"?>
<!-- Generator: Adobe Illustrator 17.1.0, SVG Export Plug-In . SVG Version: 6.00 Build 0)  -->
<!DOCTYPE svg PUBLIC "-//W3C//DTD SVG 1.1//EN" "http://www.w3.org/Graphics/SVG/1.1/DTD/svg11.dtd">
<svg version="1.1" id="Layer_1" xmlns="http://www.w3.org/2000/svg" xmlns:xlink="http://www.w3.org/1999/xlink" x="0px" y="0px"
	 viewBox="0 0 80 50" enable-background="new 0 0 80 50" xml:space="preserve">
<g>
	<path fill="#0071BC" d="M68.7,41.1c1.1,1.9,3.6,2.6,5.6,1.5c1.9-1.1,2.6-3.6,1.5-5.6L59.7,8.9C58.5,7,56,6.3,54.1,7.4
		c-1.9,1.1-2.6,3.6-1.5,5.6L68.7,41.1z M53.5,6.3c2.6-1.5,5.8-0.6,7.3,2l16.1,28.1c1.5,2.6,0.6,5.8-2,7.3c-2.6,1.5-5.8,0.6-7.3-2
		L51.5,13.6C50,11.1,50.9,7.8,53.5,6.3"/>
	<path fill="#0071BC" d="M70.8,39.9c0.5,0.8,1.5,1.1,2.3,0.6c0.8-0.5,1.1-1.5,0.6-2.3L57.6,10.1c-0.5-0.8-1.5-1.1-2.3-0.6
		c-0.8,0.5-1.1,1.5-0.6,2.3L70.8,39.9z M54.6,8.4c1.4-0.8,3.2-0.3,4,1.1l16.1,28.1c0.8,1.4,0.3,3.2-1.1,4c-1.4,0.8-3.2,0.3-4-1.1
		L53.6,12.4C52.7,11,53.2,9.2,54.6,8.4"/>
	<path fill="#0071BC" d="M55.5,10.8c0.1-0.3,0.4-0.5,0.8-0.4l0,0c0.2,0,0.3,0.2,0.4,0.3l16.1,28.1c0.2,0.3,0.1,0.6-0.1,0.8
		c0,0-0.1,0.1-0.1,0.1c-0.1,0.1-0.3,0.1-0.5,0.1l0,0c-0.2,0-0.3-0.2-0.4-0.3L55.6,11.3C55.5,11.1,55.4,11,55.5,10.8L55.5,10.8z"/>
	<path fill="#0071BC" d="M43.5,41.1c-1.1,1.9-3.6,2.6-5.6,1.5C36,41.5,35.3,39,36.4,37L52.6,8.9c1.1-1.9,3.6-2.6,5.6-1.5
		c1.9,1.1,2.6,3.6,1.5,5.6L43.5,41.1z M58.8,6.3c-2.6-1.5-5.8-0.6-7.3,2L35.3,36.4c-1.5,2.6-0.6,5.8,2,7.3c2.6,1.5,5.8,0.6,7.3-2
		l16.1-28.1C62.2,11.1,61.3,7.8,58.8,6.3"/>
	<path fill="#0071BC" d="M41.4,39.9c-0.5,0.8-1.5,1.1-2.3,0.6C38.3,40,38,39,38.5,38.2l16.1-28.1c0.5-0.8,1.5-1.1,2.3-0.6
		c0.8,0.5,1.1,1.5,0.6,2.3L41.4,39.9z M57.6,8.4c-1.4-0.8-3.2-0.3-4,1.1L37.4,37.6c-0.8,1.4-0.3,3.2,1.1,4c1.4,0.8,3.2,0.3,4-1.1
		l16.1-28.1C59.5,11,59,9.2,57.6,8.4"/>
	<path fill="#0071BC" d="M56.7,10.8c-0.1-0.3-0.4-0.5-0.8-0.4l0,0c-0.2,0-0.3,0.2-0.4,0.3L39.4,38.7c-0.2,0.3-0.1,0.6,0.1,0.8
		c0,0,0.1,0.1,0.1,0.1c0.1,0.1,0.3,0.1,0.5,0.1l0,0c0.2,0,0.3-0.2,0.4-0.3l16.1-28.1C56.8,11.1,56.8,11,56.7,10.8L56.7,10.8z"/>
	<path fill="#0071BC" d="M11.3,41.1c-1.1,1.9-3.6,2.6-5.6,1.5C3.8,41.5,3.1,39,4.2,37L20.3,8.9C21.5,7,24,6.3,25.9,7.4
		c1.9,1.1,2.6,3.6,1.5,5.6L11.3,41.1z M26.5,6.3c-2.6-1.5-5.8-0.6-7.3,2L3.1,36.4c-1.5,2.6-0.6,5.8,2,7.3s5.8,0.6,7.3-2l16.1-28.1
		C30,11.1,29.1,7.8,26.5,6.3"/>
	<path fill="#0071BC" d="M9.2,39.9c-0.5,0.8-1.5,1.1-2.3,0.6C6.1,40,5.8,39,6.3,38.2l16.1-28.1c0.5-0.8,1.5-1.1,2.3-0.6
		c0.8,0.5,1.1,1.5,0.6,2.3L9.2,39.9z M25.4,8.4c-1.4-0.8-3.2-0.3-4,1.1L5.2,37.6c-0.8,1.4-0.3,3.2,1.1,4c1.4,0.8,3.2,0.3,4-1.1
		l16.1-28.1C27.3,11,26.8,9.2,25.4,8.4"/>
	<path fill="#0071BC" d="M24.5,10.8c-0.1-0.3-0.4-0.5-0.8-0.4l0,0c-0.2,0-0.3,0.2-0.4,0.3L7.2,38.7C7,39,7.1,39.3,7.3,39.5
		c0,0,0.1,0.1,0.1,0.1c0.1,0.1,0.3,0.1,0.5,0.1l0,0c0.2,0,0.3-0.2,0.4-0.3l16.1-28.1C24.5,11.1,24.6,11,24.5,10.8L24.5,10.8z"/>
	<path fill="#0071BC" d="M36.5,41.1c1.1,1.9,3.6,2.6,5.6,1.5c1.9-1.1,2.6-3.6,1.5-5.6L27.4,8.9c-1.1-1.9-3.6-2.6-5.6-1.5
		c-1.9,1.1-2.6,3.6-1.5,5.6L36.5,41.1z M21.2,6.3c2.6-1.5,5.8-0.6,7.3,2l16.1,28.1c1.5,2.6,0.6,5.8-2,7.3c-2.6,1.5-5.8,0.6-7.3-2
		L19.3,13.6C17.8,11.1,18.7,7.8,21.2,6.3"/>
	<path fill="#0071BC" d="M38.6,39.9c0.5,0.8,1.5,1.1,2.3,0.6c0.8-0.5,1.1-1.5,0.6-2.3L25.4,10.1c-0.5-0.8-1.5-1.1-2.3-0.6
		C22.2,10,22,11,22.4,11.8L38.6,39.9z M22.4,8.4c1.4-0.8,3.2-0.3,4,1.1l16.1,28.1c0.8,1.4,0.3,3.2-1.1,4c-1.4,0.8-3.2,0.3-4-1.1
		L21.3,12.4C20.5,11,21,9.2,22.4,8.4"/>
	<path fill="#0071BC" d="M23.3,10.8c0.1-0.3,0.4-0.5,0.8-0.4l0,0c0.2,0,0.3,0.2,0.4,0.3l16.1,28.1c0.2,0.3,0.1,0.6-0.1,0.8
		c0,0-0.1,0.1-0.1,0.1c-0.1,0.1-0.3,0.1-0.5,0.1l0,0c-0.2,0-0.3-0.2-0.4-0.3L23.3,11.3C23.2,11.1,23.2,11,23.3,10.8L23.3,10.8z"/>
</g>
</svg>
