<?xml version="1.0" encoding="utf-8"?>
<!-- Generator: Adobe Illustrator 17.1.0, SVG Export Plug-In . SVG Version: 6.00 Build 0)  -->
<!DOCTYPE svg PUBLIC "-//W3C//DTD SVG 1.1//EN" "http://www.w3.org/Graphics/SVG/1.1/DTD/svg11.dtd">
<svg version="1.1" id="Layer_1" xmlns="http://www.w3.org/2000/svg" xmlns:xlink="http://www.w3.org/1999/xlink" x="0px" y="0px"
	 viewBox="0 0 80 50" enable-background="new 0 0 80 50" xml:space="preserve">
<path fill="#962683" d="M2.1,41.4l2.1,3.4l10.4-6.5l-2.1-3.4L2.1,41.4z M31,18.9l-0.3-7.2l-3.9,0.2l3.8-2.4l-2.1-3.4l-1.9,1.2
	l-0.1-2.6l-4,0.2l0.2,4.9L18,12.8l2.1,3.4L14,19.9l2.1,3.4L10,27.1l2.1,3.4L6,34.3l2.1,3.4l10.4-6.6l-2.1-3.4l-1.8,1.1l7.9-4.9
	l-2.1-3.4l-1.6,1l7.1-4.4l1,0l0.3,7.2l4-0.2l0.3,7.2l4-0.2L35,18.8L31,18.9z M77.4,32.7l-4,0.2L74,45.2l4-0.2L77.4,32.7z M69.2,25.9
	l-0.3-7.2l-4,0.2l0.6,12.3l4-0.2l0.3,7.2l4-0.2l-0.6-12.3L69.2,25.9z M60.6,11.9l3.8-2.4l-2.1-3.4l-1.9,1.2l-0.1-2.6l-4,0.2l0.2,4.9
	l-4.7,2.9l2.1,3.4l-6.1,3.8l2.1,3.4l-6.1,3.8l2.1,3.4l-3.7,2.3l-2.7,0.1l-0.3-7.2l-4,0.2l0.6,12.3l4-0.2l0,0.9l-3.9,2.5l2.1,3.4
	l2-1.3l0.1,1.7l4-0.2l-0.2-3.9l4.6-2.9l-2.1-3.4l6.1-3.8l-2.1-3.4l-2,1.2l8-5l-2.1-3.4l-1.6,1l7.1-4.4l1,0l0.3,7.2l4-0.2l-0.6-12.3
	L60.6,11.9z"/>
</svg>
