<?xml version="1.0" encoding="utf-8"?>
<!-- Generator: Adobe Illustrator 17.1.0, SVG Export Plug-In . SVG Version: 6.00 Build 0)  -->
<!DOCTYPE svg PUBLIC "-//W3C//DTD SVG 1.1//EN" "http://www.w3.org/Graphics/SVG/1.1/DTD/svg11.dtd">
<svg version="1.1" id="Layer_1" xmlns="http://www.w3.org/2000/svg" xmlns:xlink="http://www.w3.org/1999/xlink" x="0px" y="0px"
	 viewBox="0 0 80 50" enable-background="new 0 0 80 50" xml:space="preserve">
<path fill="#FD6467" d="M61.8,36.7c-0.9-1.6-2.4-2.7-4.1-3.1c-1.6-0.5-2.2-1.6-2.8-2.8c-0.7-1.3-0.9-2.7-0.7-4.1
	c0-0.1,0-0.2,0.1-0.2c0-0.1,0-0.1,0-0.2c0.3-1.4,0.1-3-0.7-4.3c-0.9-1.6-2.4-2.7-4-3.1c-1.6-0.6-2.2-1.6-2.8-2.8
	c-0.7-1.3-1-2.8-0.7-4.1c0.1-0.2,0.1-0.4,0.1-0.6c0-0.1,0-0.1,0-0.2c0.2-1.3,0-2.7-0.7-3.9c-1-1.7-2.6-2.8-4.4-3.1c0,0,0,0-0.1,0
	c-0.2,0-0.4-0.1-0.6-0.1c0,0,0,0-0.1,0c0,0-0.1,0-0.1,0c-0.1,0-0.1,0-0.2,0c-0.1,0-0.1,0-0.2,0c0,0-0.1,0-0.1,0c0,0,0,0-0.1,0
	c-0.2,0-0.4,0-0.6,0.1c0,0,0,0-0.1,0c-1.8,0.3-3.5,1.4-4.4,3.1c-0.7,1.2-0.9,2.6-0.7,3.9c0,0.1,0,0.1,0,0.2c0,0.2,0.1,0.4,0.1,0.6
	c0.2,1.4,0,2.8-0.7,4.1c-0.7,1.2-1.3,2.1-2.8,2.8c-1.7,0.4-3.2,1.5-4,3.1c-0.8,1.4-1,2.9-0.7,4.3c0,0.1,0,0.1,0,0.2
	c0,0.1,0,0.2,0.1,0.2c0.2,1.3,0,2.8-0.7,4.1c-0.7,1.2-1.3,2.3-2.8,2.8c-1.7,0.4-3.2,1.5-4.1,3.1c-1.7,3-0.6,6.9,2.5,8.5
	c0.9,0.5,1.8,0.7,2.7,0.8c2.3,0.1,4.6-1,5.9-3.2c0.9-1.6,1-3.5,0.4-5.1c-0.4-1.1,0.2-2.6,0.8-3.8c0.8-1.5,2.2-2.6,3.8-3
	c1.3-0.5,2.4-1.5,3.1-2.8c0.7-1.3,0.9-2.7,0.7-4c-0.4-1.8-0.3-3.4,0.6-5c0.4-0.7,0.9-1.2,1.4-1.7c0.5,0.5,1,1,1.4,1.7
	c0.9,1.6,0.9,3.1,0.6,5c-0.2,1.3,0,2.7,0.7,4c0.7,1.3,1.8,2.2,3.1,2.8c1.5,0.4,2.9,1.5,3.8,3c0.7,1.2,1.2,2.7,0.8,3.8
	c-0.6,1.6-0.5,3.5,0.4,5.1c1.2,2.2,3.5,3.4,5.9,3.2c0.9-0.1,1.8-0.3,2.7-0.8C62.4,43.5,63.5,39.7,61.8,36.7"/>
</svg>
