<?xml version="1.0" encoding="utf-8"?>
<!-- Generator: Adobe Illustrator 17.1.0, SVG Export Plug-In . SVG Version: 6.00 Build 0)  -->
<!DOCTYPE svg PUBLIC "-//W3C//DTD SVG 1.1//EN" "http://www.w3.org/Graphics/SVG/1.1/DTD/svg11.dtd">
<svg version="1.1" id="Layer_1" xmlns="http://www.w3.org/2000/svg" xmlns:xlink="http://www.w3.org/1999/xlink" x="0px" y="0px"
	 viewBox="0 0 80 50" enable-background="new 0 0 80 50" xml:space="preserve">
<g>
	<path fill="#0071BC" d="M51.6,41.1C50.5,43,48,43.7,46,42.6c-1.9-1.1-2.6-3.6-1.5-5.6L60.7,8.9c1.1-1.9,3.6-2.6,5.6-1.5
		c1.9,1.1,2.6,3.6,1.5,5.6L51.6,41.1z M66.8,6.3c-2.6-1.5-5.8-0.6-7.3,2L43.4,36.4c-1.5,2.6-0.6,5.8,2,7.3c2.6,1.5,5.8,0.6,7.3-2
		l16.1-28.1C70.3,11.1,69.4,7.8,66.8,6.3"/>
	<path fill="#0071BC" d="M49.5,39.9C49,40.7,48,41,47.2,40.5c-0.8-0.5-1.1-1.5-0.6-2.3l16.1-28.1C63.2,9.3,64.2,9,65,9.5
		c0.8,0.5,1.1,1.5,0.6,2.3L49.5,39.9z M65.7,8.4c-1.4-0.8-3.2-0.3-4,1.1L45.5,37.6c-0.8,1.4-0.3,3.2,1.1,4c1.4,0.8,3.2,0.3,4-1.1
		l16.1-28.1C67.6,11,67.1,9.2,65.7,8.4"/>
	<path fill="#0071BC" d="M64.8,10.8c-0.1-0.3-0.4-0.5-0.8-0.4l0,0c-0.2,0-0.3,0.2-0.4,0.3L47.5,38.7c-0.2,0.3-0.1,0.6,0.1,0.8
		c0,0,0.1,0.1,0.1,0.1c0.1,0.1,0.3,0.1,0.5,0.1l0,0c0.2,0,0.3-0.2,0.4-0.3l16.1-28.1C64.8,11.1,64.9,11,64.8,10.8L64.8,10.8z"/>
	<path fill="#0071BC" d="M19.3,41.1c-1.1,1.9-3.6,2.6-5.6,1.5S11.2,39,12.3,37L28.4,8.9C29.5,7,32,6.3,34,7.4
		c1.9,1.1,2.6,3.6,1.5,5.6L19.3,41.1z M34.6,6.3c-2.6-1.5-5.8-0.6-7.3,2L11.2,36.4c-1.5,2.6-0.6,5.8,2,7.3s5.8,0.6,7.3-2l16.1-28.1
		C38.1,11.1,37.2,7.8,34.6,6.3"/>
	<path fill="#0071BC" d="M17.3,39.9c-0.5,0.8-1.5,1.1-2.3,0.6c-0.8-0.5-1.1-1.5-0.6-2.3l16.1-28.1C31,9.3,32,9,32.8,9.5
		c0.8,0.5,1.1,1.5,0.6,2.3L17.3,39.9z M33.4,8.4c-1.4-0.8-3.2-0.3-4,1.1L13.2,37.6c-0.8,1.4-0.3,3.2,1.1,4c1.4,0.8,3.2,0.3,4-1.1
		l16.1-28.1C35.3,11,34.8,9.2,33.4,8.4"/>
	<path fill="#0071BC" d="M32.6,10.8c-0.1-0.3-0.4-0.5-0.8-0.4l0,0c-0.2,0-0.3,0.2-0.4,0.3L15.3,38.7c-0.2,0.3-0.1,0.6,0.1,0.8
		c0,0,0.1,0.1,0.1,0.1c0.1,0.1,0.3,0.1,0.5,0.1l0,0c0.2,0,0.3-0.2,0.4-0.3l16.1-28.1C32.6,11.1,32.6,11,32.6,10.8L32.6,10.8z"/>
	<path fill="#0071BC" d="M44.6,41.1c1.1,1.9,3.6,2.6,5.6,1.5s2.6-3.6,1.5-5.6L35.5,8.9c-1.1-1.9-3.6-2.6-5.6-1.5
		C28,8.5,27.3,11,28.4,13L44.6,41.1z M29.3,6.3c2.6-1.5,5.8-0.6,7.3,2l16.1,28.1c1.5,2.6,0.6,5.8-2,7.3s-5.8,0.6-7.3-2L27.3,13.6
		C25.9,11.1,26.7,7.8,29.3,6.3"/>
	<path fill="#0071BC" d="M46.6,39.9c0.5,0.8,1.5,1.1,2.3,0.6c0.8-0.5,1.1-1.5,0.6-2.3L33.4,10.1C33,9.3,31.9,9,31.1,9.5
		C30.3,10,30,11,30.5,11.8L46.6,39.9z M30.5,8.4c1.4-0.8,3.2-0.3,4,1.1l16.1,28.1c0.8,1.4,0.3,3.2-1.1,4c-1.4,0.8-3.2,0.3-4-1.1
		L29.4,12.4C28.6,11,29.1,9.2,30.5,8.4"/>
	<path fill="#0071BC" d="M31.3,10.8c0.1-0.3,0.4-0.5,0.8-0.4l0,0c0.2,0,0.3,0.2,0.4,0.3l16.1,28.1c0.2,0.3,0.1,0.6-0.1,0.8
		c0,0-0.1,0.1-0.1,0.1c-0.1,0.1-0.3,0.1-0.5,0.1l0,0c-0.2,0-0.3-0.2-0.4-0.3L31.4,11.3C31.3,11.1,31.3,11,31.3,10.8L31.3,10.8z"/>
</g>
</svg>
