<?xml version="1.0" encoding="utf-8"?>
<!-- Generator: Adobe Illustrator 17.1.0, SVG Export Plug-In . SVG Version: 6.00 Build 0)  -->
<!DOCTYPE svg PUBLIC "-//W3C//DTD SVG 1.1//EN" "http://www.w3.org/Graphics/SVG/1.1/DTD/svg11.dtd">
<svg version="1.1" id="Layer_1" xmlns="http://www.w3.org/2000/svg" xmlns:xlink="http://www.w3.org/1999/xlink" x="0px" y="0px"
	 viewBox="0 0 80 50" enable-background="new 0 0 80 50" xml:space="preserve">
<g>
	<path fill="none" stroke="#009245" stroke-width="4" d="M8.3,41.7c2.3,1.3,5.3,0.6,6.6-1.7c1.3-2.3,0.6-5.3-1.7-6.6"/>
	<path fill="none" stroke="#009245" stroke-width="4" d="M18,25c-2.3-1.3-5.3-0.6-6.6,1.7s-0.6,5.3,1.7,6.6"/>
	<path fill="none" stroke="#009245" stroke-width="4" d="M18,25c2.3,1.3,5.3,0.6,6.6-1.7s0.6-5.3-1.7-6.6"/>
	<path fill="none" stroke="#009245" stroke-width="4" d="M27.8,8.3c-2.3-1.3-5.3-0.6-6.6,1.7c-1.3,2.3-0.6,5.3,1.7,6.6"/>
	<path fill="none" stroke="#009245" stroke-width="4" d="M37.6,41.7c2.3,1.3,5.3,0.6,6.6-1.7c1.3-2.3,0.6-5.3-1.7-6.6"/>
	<path fill="none" stroke="#009245" stroke-width="4" d="M47.3,25c-2.3-1.3-5.3-0.6-6.6,1.7c-1.3,2.3-0.6,5.3,1.7,6.6"/>
	<path fill="none" stroke="#009245" stroke-width="4" d="M47.3,25c2.3,1.3,5.3,0.6,6.6-1.7s0.6-5.3-1.7-6.6"/>
	<path fill="none" stroke="#009245" stroke-width="4" d="M57.1,8.3c-2.3-1.3-5.3-0.6-6.6,1.7c-1.3,2.3-0.6,5.3,1.7,6.6"/>
	<path fill="none" stroke="#009245" stroke-width="4" d="M42.4,41.7c-2.3,1.3-5.3,0.6-6.6-1.7c-1.3-2.3-0.6-5.3,1.7-6.6"/>
	<path fill="none" stroke="#009245" stroke-width="4" d="M32.7,25c2.3-1.3,5.3-0.6,6.6,1.7s0.6,5.3-1.7,6.6"/>
	<path fill="none" stroke="#009245" stroke-width="4" d="M32.7,25c-2.3,1.3-5.3,0.6-6.6-1.7c-1.3-2.3-0.6-5.3,1.7-6.6"/>
	<path fill="none" stroke="#009245" stroke-width="4" d="M22.9,8.3c2.3-1.3,5.3-0.6,6.6,1.7c1.3,2.3,0.6,5.3-1.7,6.6"/>
	<path fill="none" stroke="#009245" stroke-width="4" d="M71.7,41.7c-2.3,1.3-5.3,0.6-6.6-1.7c-1.3-2.3-0.6-5.3,1.7-6.6"/>
	<path fill="none" stroke="#009245" stroke-width="4" d="M62,25c2.3-1.3,5.3-0.6,6.6,1.7s0.6,5.3-1.7,6.6"/>
	<path fill="none" stroke="#009245" stroke-width="4" d="M62,25c-2.3,1.3-5.3,0.6-6.6-1.7c-1.3-2.3-0.6-5.3,1.7-6.6"/>
	<path fill="none" stroke="#009245" stroke-width="4" d="M52.2,8.3c2.3-1.3,5.3-0.6,6.6,1.7c1.3,2.3,0.6,5.3-1.7,6.6"/>
</g>
</svg>
